<?xml version="1.0" encoding="UTF-8" standalone="no"?>
<!-- Created with Inkscape (http://www.inkscape.org/) -->

<svg
   xmlns:dc="http://purl.org/dc/elements/1.1/"
   xmlns:cc="http://creativecommons.org/ns#"
   xmlns:rdf="http://www.w3.org/1999/02/22-rdf-syntax-ns#"
   xmlns:svg="http://www.w3.org/2000/svg"
   xmlns="http://www.w3.org/2000/svg"
   xmlns:sodipodi="http://sodipodi.sourceforge.net/DTD/sodipodi-0.dtd"
   xmlns:inkscape="http://www.inkscape.org/namespaces/inkscape"
   width="124.95088mm"
   height="127.99254mm"
   viewBox="0 0 124.95089 127.99254"
   version="1.1"
   id="svg8"
   inkscape:version="0.92.5 (2060ec1f9f, 2020-04-08)"
   sodipodi:docname="person.svg">
  <defs
     id="defs2" />
  <sodipodi:namedview
     id="base"
     pagecolor="#ffffff"
     bordercolor="#666666"
     borderopacity="1.0"
     inkscape:pageopacity="0.0"
     inkscape:pageshadow="2"
     inkscape:zoom="1.1467803"
     inkscape:cx="117.20232"
     inkscape:cy="198.38317"
     inkscape:document-units="mm"
     inkscape:current-layer="layer1"
     showgrid="false"
     fit-margin-top="0"
     fit-margin-left="0"
     fit-margin-right="0"
     fit-margin-bottom="0"
     inkscape:window-width="1856"
     inkscape:window-height="1019"
     inkscape:window-x="64"
     inkscape:window-y="24"
     inkscape:window-maximized="1" />
  <metadata
     id="metadata5">
    <rdf:RDF>
      <cc:Work
         rdf:about="">
        <dc:format>image/svg+xml</dc:format>
        <dc:type
           rdf:resource="http://purl.org/dc/dcmitype/StillImage" />
        <dc:title></dc:title>
      </cc:Work>
    </rdf:RDF>
  </metadata>
  <g
     inkscape:label="Layer 1"
     inkscape:groupmode="layer"
     id="layer1"
     transform="translate(-34.229348,-76.353484)">
    <path
       style="fill:#010101;stroke-width:0.2813071"
       d="m 34.229348,200.02457 c 0,-16.36391 5.59911,-31.29919 16.269145,-43.39695 3.468182,-3.93225 6.220211,-6.46078 10.371175,-9.52894 2.597893,-1.92022 9.685726,-6.15483 10.306894,-6.15784 0.834625,-0.005 0.466865,-1.08013 -1.249339,-3.6557 -2.580388,-3.8725 -4.80755,-9.04558 -5.830774,-13.54331 -1.513374,-6.65226 -1.334611,-14.39111 0.483611,-20.93615 0.749758,-2.69889 2.741996,-7.419327 4.054959,-9.607858 5.249014,-8.749411 13.248305,-14.610733 22.403031,-16.415379 2.9014,-0.571945 8.364529,-0.571945 11.26593,0 14.52167,2.862616 25.7415,15.97062 27.71158,32.375127 0.52389,4.36236 0.21826,10.22042 -0.75662,14.50262 -1.15788,5.086 -3.71089,10.83027 -6.56347,14.76775 -0.48897,0.67494 -0.88904,1.42593 -0.88904,1.66888 0,0.27111 1.58117,1.33294 4.09385,2.7492 13.81386,7.78615 24.06034,19.81374 29.34086,34.44109 2.55571,7.07945 3.60158,12.90378 3.79825,21.15192 l 0.14084,5.90699 H 96.704787 34.229348 Z"
       id="path856" />
    <path
       style="fill:#01c201;stroke-width:0.2813071;fill-opacity:1"
       d="m 151.17519,194.29878 c 0,-0.75552 -0.24486,-2.74072 -0.54414,-4.41154 -2.82357,-15.76368 -12.13134,-29.46884 -25.7819,-37.96238 -2.83288,-1.76265 -6.75575,-3.71904 -9.13842,-4.55746 l -1.46549,-0.51569 -2.37097,1.34423 c -2.63587,1.49443 -6.48214,2.97323 -9.27023,3.5642 -2.35365,0.49888 -9.500613,0.50148 -11.844199,0.005 -2.859702,-0.60667 -5.895475,-1.76265 -8.956175,-3.41038 l -2.828812,-1.52289 -2.06598,0.8155 c -1.13629,0.44853 -3.732858,1.73356 -5.77015,2.85563 -14.936917,8.22678 -25.33241,22.6609 -28.439005,39.48749 -0.28852,1.56274 -0.526446,3.48064 -0.528725,4.262 l -0.0041,1.42067 h 54.504122 54.504174 z"
       id="path854" />
    <path
       style="fill:#c2a284;stroke-width:0.2813071;fill-opacity:1"
       d="m 103.02406,142.63189 c 9.95322,-2.86579 17.29048,-11.70519 19.19869,-23.12921 0.52996,-3.17274 0.38558,-9.39182 -0.28346,-12.21068 -2.10031,-8.849117 -6.94637,-15.58503 -13.98119,-19.433558 -4.15605,-2.273644 -5.91701,-2.69394 -11.287084,-2.69394 -5.370073,0 -7.131032,0.420296 -11.28708,2.69394 -7.034827,3.848528 -11.880882,10.584441 -13.98119,19.433558 -0.669046,2.81886 -0.813416,9.03794 -0.283458,12.21068 0.968332,5.7972 3.109997,10.56434 6.665481,14.83673 3.98526,4.78883 9.310619,7.90753 15.336795,8.98174 2.508475,0.44715 7.054586,0.13072 9.902496,-0.68926 z"
       id="path828" />
  </g>
</svg>
