<?xml version="1.0" encoding="UTF-8" standalone="no"?>
<!-- Created with Inkscape (http://www.inkscape.org/) -->

<svg
   xmlns:dc="http://purl.org/dc/elements/1.1/"
   xmlns:cc="http://creativecommons.org/ns#"
   xmlns:rdf="http://www.w3.org/1999/02/22-rdf-syntax-ns#"
   xmlns:svg="http://www.w3.org/2000/svg"
   xmlns="http://www.w3.org/2000/svg"
   xmlns:sodipodi="http://sodipodi.sourceforge.net/DTD/sodipodi-0.dtd"
   xmlns:inkscape="http://www.inkscape.org/namespaces/inkscape"
   width="14.193703mm"
   height="16mm"
   viewBox="0 0 14.193703 16"
   version="1.1"
   id="svg8"
   inkscape:version="0.92.5 (2060ec1f9f, 2020-04-08)"
   sodipodi:docname="robot-face.svg">
  <defs
     id="defs2" />
  <sodipodi:namedview
     id="base"
     pagecolor="#ffffff"
     bordercolor="#666666"
     borderopacity="1.0"
     inkscape:pageopacity="0.0"
     inkscape:pageshadow="2"
     inkscape:zoom="12.974338"
     inkscape:cx="29.120182"
     inkscape:cy="22.04862"
     inkscape:document-units="mm"
     inkscape:current-layer="layer1"
     showgrid="false"
     fit-margin-top="0"
     fit-margin-left="0"
     fit-margin-right="0"
     fit-margin-bottom="0"
     inkscape:window-width="1856"
     inkscape:window-height="1019"
     inkscape:window-x="64"
     inkscape:window-y="24"
     inkscape:window-maximized="1" />
  <metadata
     id="metadata5">
    <rdf:RDF>
      <cc:Work
         rdf:about="">
        <dc:format>image/svg+xml</dc:format>
        <dc:type
           rdf:resource="http://purl.org/dc/dcmitype/StillImage" />
        <dc:title></dc:title>
      </cc:Work>
    </rdf:RDF>
  </metadata>
  <g
     inkscape:label="Layer 1"
     inkscape:groupmode="layer"
     id="layer1"
     transform="translate(-85.807711,-141.69084)">
    <path
       inkscape:connector-curvature="0"
       style="fill:#b34900;fill-opacity:1;stroke-width:0.25806716"
       d="m 87.098037,155.49735 c 0,-2.16776 -0.0061,-2.19358 -0.645148,-2.19358 -0.626737,0 -0.645178,-0.0515 -0.645178,-1.80648 0,-1.75485 0.01829,-1.80645 0.645178,-1.80645 0.630822,0 0.645148,-0.043 0.645148,-1.9355 v -1.93551 h 2.580681 c 1.41938,0 2.580682,-0.10272 2.580682,-0.2283 0,-0.12557 -0.290173,-0.41861 -0.645178,-0.65112 -0.50189,-0.32885 -0.645178,-0.64176 -0.645178,-1.40904 0,-1.2358 0.621434,-1.84053 1.891307,-1.84053 1.927152,0 2.706322,2.02801 1.205499,3.13762 -0.425811,0.3148 -0.774202,0.66667 -0.774202,0.78191 0,0.11522 1.219368,0.2094 2.709705,0.2094 h 2.709705 v 1.93551 c 0,1.89249 0.01524,1.9355 0.645178,1.9355 0.626738,0 0.645174,0.0515 0.645174,1.80645 0,1.75488 -0.01828,1.80648 -0.645174,1.80648 -0.637588,0 -0.645178,0.0244 -0.645178,2.19358 v 2.19355 h -5.80651 -5.806511 z"
       id="path932" />
    <path
       inkscape:connector-curvature="0"
       style="fill:#fff200;fill-opacity:1;stroke-width:0.25806716"
       d="m 97.936857,154.5941 c 0,-2.30539 0.0061,-2.32261 0.645178,-2.32261 0.565289,0 0.645178,-0.11186 0.645178,-0.90322 0,-0.7914 -0.07986,-0.90323 -0.645178,-0.90323 -0.630822,0 -0.645178,-0.043 -0.645178,-1.9355 v -1.93551 h -5.032309 -5.03231 v 1.93551 c 0,1.89249 -0.01524,1.9355 -0.645147,1.9355 -0.565289,0 -0.645178,0.11186 -0.645178,0.90323 0,0.79139 0.07986,0.90322 0.645178,0.90322 0.640392,0 0.645147,0.0183 0.645147,2.32261 v 2.3226 h 5.03231 5.032309 z"
       id="path930" />
    <path
       inkscape:connector-curvature="0"
       style="fill:#ff6300;fill-opacity:1;stroke-width:0.25806716"
       d="m 89.472275,155.05862 c -0.398074,-0.39808 -0.398074,-1.30517 0,-1.70325 0.325256,-0.32525 5.728054,-0.45233 6.507986,-0.15301 0.552457,0.21184 0.552457,1.79731 0,2.0093 -0.779932,0.29932 -6.18273,0.17221 -6.507986,-0.15301 z"
       id="path928" />
    <path
       inkscape:connector-curvature="0"
       style="fill:#000008;fill-opacity:1;stroke-width:0.25806716"
       d="m 95.164362,154.20699 c -0.06675,-0.27401 -4.030998,-0.50536 -4.641703,-0.27097 -0.198427,0.0762 -0.285601,0.25939 -0.19416,0.40762 0.217935,0.35278 4.922549,0.21976 4.835802,-0.13655 z"
       id="path926" />
    <path
       inkscape:connector-curvature="0"
       style="fill:#ff0000;fill-opacity:1;stroke-width:0.25806716"
       d="m 89.051981,151.09178 c -0.554773,-0.5548 -0.516886,-1.99439 0.06645,-2.52225 0.626402,-0.56691 1.923647,-0.54319 2.455834,0.0448 0.566874,0.62641 0.543191,1.92368 -0.04481,2.45584 -0.597049,0.54032 -1.946903,0.55206 -2.477414,0.0213 z"
       id="path924" />
    <path
       inkscape:connector-curvature="0"
       style="fill:#ffffff;fill-opacity:1;stroke-width:0.25806716"
       d="m 90.840021,149.81986 c 0,-0.33876 -0.199647,-0.54447 -0.580651,-0.5986 -0.476317,-0.0677 -0.580652,0.0399 -0.580652,0.5986 0,0.55868 0.104243,0.66624 0.580652,0.59861 0.381126,-0.0543 0.580651,-0.26 0.580651,-0.59861 z"
       id="path922" />
    <path
       inkscape:connector-curvature="0"
       style="fill:#ff0000;fill-opacity:1;stroke-width:0.25806716"
       d="m 94.074933,150.99814 c -0.146916,-0.27462 -0.267008,-0.80477 -0.267008,-1.17828 0,-1.20025 0.434071,-1.67742 1.525878,-1.67742 1.184162,0 1.674134,0.49091 1.674134,1.67742 0,1.18651 -0.489972,1.67743 -1.674134,1.67743 -0.716228,0 -1.065777,-0.13869 -1.258748,-0.49915 z"
       id="path920" />
    <path
       inkscape:connector-curvature="0"
       style="fill:#ffffff;fill-opacity:1;stroke-width:0.25806716"
       d="m 95.941856,150.14244 c 0.185015,-0.52996 -0.09266,-0.96775 -0.613265,-0.96775 -0.349062,0 -0.48854,0.1841 -0.48854,0.64517 0,0.46376 0.138991,0.64518 0.494636,0.64518 0.271885,0 0.545263,-0.14509 0.607169,-0.3226 z"
       id="path918" />
    <path
       inkscape:connector-curvature="0"
       style="fill:#fff200;fill-opacity:1;stroke-width:0.25806716"
       d="m 93.651103,143.67566 c 0.227993,-0.37226 0.18715,-0.54002 -0.201475,-0.82873 -0.604334,-0.44895 -1.448244,-0.0774 -1.448244,0.63786 0,0.86135 1.157339,0.99522 1.64978,0.19081 z"
       id="path896" />
  </g>
</svg>
