<?xml version="1.0" encoding="UTF-8" standalone="no"?>
<!-- Created with Inkscape (http://www.inkscape.org/) -->

<svg
   xmlns:dc="http://purl.org/dc/elements/1.1/"
   xmlns:cc="http://creativecommons.org/ns#"
   xmlns:rdf="http://www.w3.org/1999/02/22-rdf-syntax-ns#"
   xmlns:svg="http://www.w3.org/2000/svg"
   xmlns="http://www.w3.org/2000/svg"
   xmlns:sodipodi="http://sodipodi.sourceforge.net/DTD/sodipodi-0.dtd"
   xmlns:inkscape="http://www.inkscape.org/namespaces/inkscape"
   width="137.23611mm"
   height="149.22226mm"
   viewBox="0 0 137.23612 149.22226"
   version="1.1"
   id="svg8"
   inkscape:version="0.92.5 (2060ec1f9f, 2020-04-08)"
   sodipodi:docname="winner.svg">
  <defs
     id="defs2" />
  <sodipodi:namedview
     id="base"
     pagecolor="#ffffff"
     bordercolor="#666666"
     borderopacity="1.0"
     inkscape:pageopacity="0.0"
     inkscape:pageshadow="2"
     inkscape:zoom="0.57339015"
     inkscape:cx="483.4961"
     inkscape:cy="194.7408"
     inkscape:document-units="mm"
     inkscape:current-layer="layer1"
     showgrid="false"
     fit-margin-top="0"
     fit-margin-left="0"
     fit-margin-right="0"
     fit-margin-bottom="0"
     inkscape:window-width="1856"
     inkscape:window-height="1019"
     inkscape:window-x="64"
     inkscape:window-y="24"
     inkscape:window-maximized="1" />
  <metadata
     id="metadata5">
    <rdf:RDF>
      <cc:Work
         rdf:about="">
        <dc:format>image/svg+xml</dc:format>
        <dc:type
           rdf:resource="http://purl.org/dc/dcmitype/StillImage" />
        <dc:title></dc:title>
      </cc:Work>
    </rdf:RDF>
  </metadata>
  <g
     inkscape:label="Layer 1"
     inkscape:groupmode="layer"
     id="layer1"
     transform="translate(47.6286,-99.826076)">
    <path
       style="fill:#2f2f30;stroke-width:0.15410282"
       d="M -58.284434,173.38137 V 93.381371 h 79.999999 80.000005 v 79.999999 80 H 21.715565 -58.284434 Z"
       id="path1761"
       inkscape:connector-curvature="0" />
    <path
       style="fill:#f3c716;fill-opacity:1;stroke-width:0.23577732"
       d="m 36.770142,99.826876 c -4.697885,-0.0023 -10.045982,3.38e-4 -15.960562,0.0082 l -38.154284,0.05048 -0.04534,4.339524 c -0.02494,2.38679 -0.120291,4.39321 -0.21245,4.45873 -0.09216,0.0655 -0.63852,-0.0674 -1.213535,-0.29549 -0.575004,-0.22808 -1.989078,-0.62418 -3.142531,-0.88026 -1.778087,-0.39474 -2.65031,-0.46247 -5.732348,-0.44497 -3.092414,0.0176 -4.009354,0.10074 -6.141403,0.55797 -3.870261,0.82998 -6.111114,1.75349 -8.70502,3.58702 -2.621121,1.85276 -4.043734,3.66791 -4.759659,6.07285 -0.581504,1.9534 -0.374613,5.49114 0.435826,7.45515 2.867792,6.94978 10.942619,12.25691 22.836535,15.00895 3.327945,0.77003 10.155132,1.79002 11.980798,1.79002 1.4352,0 1.937884,0.49433 2.9328088,2.88266 2.1414128,5.14048 5.6775805,11.07569 8.91964628,14.97089 2.67903602,3.21875 4.94676472,5.28793 8.22331722,7.50292 l 2.7989997,1.89213 -1.0633459,0.65349 c -0.9687358,0.59537 -1.0742104,0.75888 -1.1796744,1.83273 -0.067962,0.69141 0.030119,1.4259 0.2370218,1.77564 0.2312927,0.39085 0.3263891,1.35605 0.2758077,2.79996 l -0.077046,2.20315 1.5603318,0.54283 c 1.792387,0.62347 2.849962,1.45488 4.190584,3.29386 2.397426,3.28864 3.659843,8.11894 3.638968,13.92329 -0.01112,3.08969 -0.09247,3.6921 -0.729104,5.38169 -1.315944,3.4924 -3.65054,6.22619 -7.553743,8.84524 -3.8090599,2.55587 -8.5933546,4.19895 -13.6880474,4.7014 -1.2775915,0.126 -2.474492,0.3102 -2.6602875,0.40926 -0.193468,0.10316 -0.3726581,0.78841 -0.4194345,1.60403 l -0.081906,1.42385 -2.0272837,0.0582 -2.0272939,0.0586 v 15.26599 c 0,8.39634 0.08466,15.32619 0.187867,15.39955 0.103143,0.0733 14.3536754,0.11052 31.667722,0.0827 l 31.479834,-0.0505 0.07154,-15.34871 0.07154,-15.34908 -2.028933,-0.0586 -2.028932,-0.0582 -0.08412,-1.38348 c -0.09575,-1.57636 -0.348964,-1.89679 -1.49971,-1.89679 -1.417943,0 -5.045465,-0.60919 -7.294868,-1.22506 -4.239779,-1.16078 -9.291872,-4.03685 -11.930006,-6.79196 -2.398091,-2.50443 -4.017145,-5.94347 -4.369172,-9.27895 -0.202874,-1.92219 0.237857,-6.61279 0.864001,-9.19198 0.890844,-3.66947 2.574165,-6.79083 4.60893,-8.54586 0.462765,-0.39914 1.543665,-0.96999 2.40195,-1.26854 l 1.560882,-0.54283 -0.07758,-2.20354 c -0.05062,-1.4439 0.0446,-2.40874 0.275797,-2.79957 0.206975,-0.34974 0.304935,-1.08423 0.237031,-1.77565 -0.105973,-1.079 -0.207926,-1.23583 -1.203156,-1.84748 l -1.08738,-0.66824 1.750948,-1.10897 c 4.826019,-3.05633 8.043681,-6.19093 11.802751,-11.49802 1.99971,-2.82321 4.644936,-7.58841 6.228243,-11.21962 0.752662,-1.72619 1.452004,-2.97406 1.754221,-3.13117 0.276357,-0.14367 0.9104,-0.26132 1.409056,-0.26132 1.892006,0 8.654633,-1.03236 12.206357,-1.8634 3.998722,-0.93564 7.367361,-2.05788 10.256618,-3.41656 8.290277,-3.89853 13.166573,-9.80749 13.14955,-15.93424 -0.0149,-5.37028 -3.534911,-9.40207 -10.201458,-11.68518 -3.655083,-1.25178 -5.726205,-1.57641 -10.066557,-1.57685 -3.249982,-4e-4 -3.872164,0.0584 -5.87216,0.55137 -1.230348,0.30332 -2.515705,0.67982 -2.856341,0.83677 -0.340623,0.15695 -0.757168,0.28539 -0.925717,0.28539 -0.214444,0 -0.289511,-1.28703 -0.250136,-4.28633 0.03256,-2.48164 -0.05467,-4.36481 -0.207534,-4.473483 -0.122768,-0.08729 -8.363852,-0.138674 -22.45751,-0.14561 z m -65.386199,10.859294 c 3.316807,-0.01 5.965449,0.79728 8.111902,2.45282 1.995715,1.5393 2.497013,2.59087 3.245194,6.80555 0.929452,5.23587 1.658176,8.4921 2.823572,12.62175 0.554458,1.96477 0.900642,3.6351 0.769517,3.71204 -0.131114,0.0769 -0.552703,0.10913 -0.937176,0.0715 -4.543828,-0.44509 -10.89245,-1.77319 -14.260958,-2.98322 -7.361809,-2.64451 -12.235575,-6.65152 -13.582095,-11.1676 -1.707142,-5.72549 2.263584,-10.06188 10.284459,-11.23166 1.260303,-0.18381 2.439976,-0.27779 3.545585,-0.28113 z m 97.997107,0.34636 c 1.105603,0.003 2.285275,0.0977 3.545578,0.2815 6.832584,0.99648 10.693375,4.14993 10.679879,8.72332 -0.01639,5.5435 -5.495167,10.80206 -14.396948,13.81844 -4.888627,1.65653 -14.960023,3.41022 -14.960023,2.60504 0,-0.1015 0.498248,-1.95783 1.107039,-4.12519 1.076555,-3.83263 2.066628,-8.3577 2.918603,-13.34163 0.483868,-2.83065 1.177687,-4.10738 2.993971,-5.50828 2.146441,-1.65556 4.795093,-2.46321 8.111901,-2.4532 z"
       id="path1677"
       inkscape:connector-curvature="0" />
  </g>
</svg>
