<?xml version="1.0" encoding="UTF-8" standalone="no"?>
<!-- Created with Inkscape (http://www.inkscape.org/) -->

<svg
   xmlns:dc="http://purl.org/dc/elements/1.1/"
   xmlns:cc="http://creativecommons.org/ns#"
   xmlns:rdf="http://www.w3.org/1999/02/22-rdf-syntax-ns#"
   xmlns:svg="http://www.w3.org/2000/svg"
   xmlns="http://www.w3.org/2000/svg"
   xmlns:sodipodi="http://sodipodi.sourceforge.net/DTD/sodipodi-0.dtd"
   xmlns:inkscape="http://www.inkscape.org/namespaces/inkscape"
   width="60.00005mm"
   height="15.000078mm"
   viewBox="0 0 60.00005 15.000078"
   version="1.1"
   id="svg8"
   inkscape:version="0.92.5 (2060ec1f9f, 2020-04-08)"
   sodipodi:docname="logo.svg">
  <defs
     id="defs2" />
  <sodipodi:namedview
     id="base"
     pagecolor="#ffffff"
     bordercolor="#666666"
     borderopacity="1.0"
     inkscape:pageopacity="0.0"
     inkscape:pageshadow="2"
     inkscape:zoom="4.5871212"
     inkscape:cx="96.475325"
     inkscape:cy="14.038243"
     inkscape:document-units="mm"
     inkscape:current-layer="layer1"
     showgrid="false"
     fit-margin-top="0"
     fit-margin-left="0"
     fit-margin-right="0"
     fit-margin-bottom="0"
     inkscape:window-width="1856"
     inkscape:window-height="1019"
     inkscape:window-x="64"
     inkscape:window-y="24"
     inkscape:window-maximized="1" />
  <metadata
     id="metadata5">
    <rdf:RDF>
      <cc:Work
         rdf:about="">
        <dc:format>image/svg+xml</dc:format>
        <dc:type
           rdf:resource="http://purl.org/dc/dcmitype/StillImage" />
        <dc:title></dc:title>
      </cc:Work>
    </rdf:RDF>
  </metadata>
  <g
     inkscape:label="Layer 1"
     inkscape:groupmode="layer"
     id="layer1"
     transform="translate(-84.910801,-185.78339)">
    <path
       style="fill:#cfd4b9;fill-opacity:1;stroke-width:0.13051358"
       d="m 85.108655,200.55689 c -0.108818,-0.11698 -0.197854,-0.32445 -0.197854,-0.46118 0,-0.20149 1.870206,-3.17465 4.060507,-6.4552 l 0.37888,-0.56746 -1.699954,-2.54417 c -2.632679,-3.94011 -2.583445,-3.84242 -2.16386,-4.29327 0.266566,-0.28642 1.900377,-0.29694 2.275469,-0.0144 0.144659,0.10885 0.905073,1.20472 1.6898,2.4352 0.784727,1.23048 1.468578,2.23723 1.519672,2.23723 0.0511,0 0.752394,-1.0043 1.558448,-2.23181 0.806055,-1.2275 1.587153,-2.32335 1.735773,-2.4352 0.378968,-0.28522 1.888738,-0.27877 2.156747,0.009 0.10884,0.11699 0.197849,0.31899 0.197849,0.44902 0,0.13008 -0.906521,1.58462 -2.014501,3.23245 -1.10798,1.6478 -2.01451,3.05986 -2.01451,3.1379 0,0.13742 2.103816,3.48154 2.491394,3.96025 0.105426,0.13024 0.23268,0.23676 0.282792,0.23676 0.05012,0 0.700382,-1.50679 1.445039,-3.34839 2.620018,-6.47959 3.006285,-7.39189 3.232674,-7.63514 0.27313,-0.29348 1.56985,-0.34571 1.89587,-0.0763 0.19199,0.15867 0.74423,1.45094 2.45695,5.74977 0.39281,0.98592 0.75868,1.79258 0.81305,1.79258 0.0543,0 0.099,-1.63943 0.099,-3.64315 0,-3.13154 0.0277,-3.67298 0.19785,-3.85572 0.24814,-0.26663 1.91281,-0.29909 2.23059,-0.0435 0.11568,0.093 1.63068,2.33035 3.36674,4.97187 1.73604,2.6415 3.21034,4.82304 3.27623,4.84784 0.0743,0.0279 0.12,-1.77859 0.12,-4.75927 0,-5.53829 -0.0674,-5.22956 1.14216,-5.22956 1.27106,0 1.25007,-0.0649 1.25007,3.86372 0,1.82741 0.0487,3.29024 0.10811,3.25074 0.10473,-0.0695 0.35653,-0.66244 2.03241,-4.78434 0.44187,-1.08681 0.90112,-2.01865 1.05014,-2.13079 0.37771,-0.28428 1.50003,-0.26117 1.81781,0.0373 0.13865,0.13023 0.86309,1.77397 1.61002,3.6528 0.74694,1.87882 1.4047,3.41603 1.46171,3.41603 0.0571,0 0.10364,-1.54808 0.10364,-3.44019 0,-3.04514 0.0244,-3.46637 0.21208,-3.66812 0.18995,-0.20407 0.51565,-0.22177 3.1162,-0.16915 2.72434,0.0551 2.96044,0.0802 3.81419,0.40659 1.07499,0.41089 1.90055,0.91032 2.55512,1.54576 l 0.47504,0.46114 0.45961,-0.67279 c 0.68209,-0.99841 1.74296,-1.70533 2.86424,-1.90856 1.04819,-0.18997 2.43309,-0.1019 3.24605,0.20621 1.27807,0.48452 2.49722,1.92689 2.91694,3.45104 0.23468,0.85206 0.23468,6.58881 0,7.44087 -0.41972,1.52415 -1.63887,2.9665 -2.91694,3.45104 -0.81296,0.3082 -2.19786,0.39618 -3.24605,0.20618 -1.07261,-0.19438 -2.19988,-0.91711 -2.76162,-1.77054 -0.19115,-0.2904 -0.39587,-0.5293 -0.45494,-0.5309 -0.059,-10e-4 -0.39106,0.27114 -0.73774,0.60607 -0.34669,0.33493 -0.99267,0.79475 -1.43551,1.02185 -1.28133,0.65709 -2.18673,0.79941 -5.10244,0.80205 -2.29598,10e-4 -2.62825,-0.0252 -2.85303,-0.23441 -0.13997,-0.13024 -0.46199,-0.78467 -0.71569,-1.45435 -0.44661,-1.17888 -0.92437,-2.42519 -2.61597,-6.82398 -0.44179,-1.14888 -0.85879,-2.10875 -0.92663,-2.13305 -0.11352,-0.0405 -0.73347,1.49959 -3.19741,7.94236 -0.49798,1.30215 -0.99538,2.44365 -1.10538,2.53667 -0.28504,0.24111 -1.91493,0.22138 -2.24521,-0.0272 -0.14345,-0.10803 -1.32801,-1.82784 -2.63234,-3.82191 -3.87047,-5.91721 -4.01229,-6.12844 -4.11507,-6.12844 -0.0543,0 -0.0986,2.18734 -0.0986,4.86073 0,4.23847 -0.0253,4.88796 -0.19785,5.07334 -0.28856,0.31006 -1.70156,0.29335 -2.04444,-0.0241 -0.1424,-0.13167 -1.1258,-2.48225 -2.21711,-5.29857 -1.07878,-2.78399 -1.9908,-5.09338 -2.02668,-5.13196 -0.0359,-0.0385 -0.11615,-0.0128 -0.17816,0.0561 -0.062,0.0695 -0.995753,2.40926 -2.074828,5.1996 -1.079076,2.79033 -2.058036,5.14944 -2.175422,5.24245 -0.249638,0.19777 -1.839542,0.22951 -2.163563,0.0431 -0.120435,-0.0694 -0.952423,-1.31589 -1.848849,-2.77029 -0.896428,-1.45441 -1.686522,-2.64328 -1.755772,-2.64194 -0.06925,0.001 -0.834134,1.13342 -1.699745,2.51576 -0.865608,1.38235 -1.708955,2.6279 -1.874104,2.76786 -0.396302,0.33593 -1.908555,0.36464 -2.208875,0.0418 z m 3.424925,-2.83139 c 2.430665,-3.83039 2.28541,-3.62671 2.469393,-3.46264 0.09025,0.0806 0.974663,1.45566 1.965341,3.05592 l 1.801232,2.90956 h 0.711257 c 0.39119,0 0.770672,-0.064 0.843287,-0.1419 0.07258,-0.078 1.117959,-2.69664 2.322989,-5.81914 1.478071,-3.83002 2.246211,-5.66571 2.360811,-5.64173 0.0935,0.0194 1.17449,2.62076 2.40427,5.78533 l 2.23445,5.74976 h 0.68043 0.68043 l 0.0331,-5.64829 c 0.0193,-3.31561 0.0805,-5.64832 0.14857,-5.64832 0.0636,0 0.75705,0.98089 1.54099,2.17975 0.78392,1.19888 2.44816,3.74062 3.69829,5.64832 l 2.27296,3.46854 0.76033,0.0398 c 0.51218,0.0267 0.80028,-0.0174 0.88287,-0.13535 0.0674,-0.0962 0.52964,-1.2404 1.02716,-2.54255 2.60553,-6.81949 3.42726,-8.8648 3.57496,-8.89808 0.10396,-0.0234 0.52121,0.90562 1.15469,2.57047 0.54561,1.43394 1.32077,3.45948 1.72255,4.5012 0.40179,1.04172 0.95299,2.4724 1.22485,3.1793 l 0.49428,1.28524 2.40531,0.0368 c 3.64886,0.0557 5.06323,-0.38561 6.68505,-2.08593 0.45088,-0.47272 0.85581,-0.85948 0.89985,-0.85948 0.0441,0 0.18242,0.24386 0.3075,0.5419 0.50228,1.19683 1.64526,2.06232 3.05363,2.31224 2.83711,0.50346 5.04556,-1.17708 5.4397,-4.1394 0.16209,-1.21834 0.16209,-4.19321 0,-5.41154 -0.39414,-2.96231 -2.60259,-4.64286 -5.4397,-4.13939 -1.43025,0.25379 -2.44803,1.02813 -3.06171,2.32946 -0.17119,0.36298 -0.36577,0.65997 -0.43243,0.65997 -0.0665,0 -0.3439,-0.25875 -0.61608,-0.57497 -0.62429,-0.72534 -1.61939,-1.3734 -2.8047,-1.82659 -0.88239,-0.33737 -1.04398,-0.35351 -3.63048,-0.36247 l -2.707,-0.009 -0.0333,4.7013 c -0.0181,2.5857 -0.0824,4.70129 -0.1424,4.70129 -0.10418,0 -0.63499,-1.26729 -2.88952,-6.89973 l -1.00183,-2.50286 h -0.61014 -0.61016 l -0.77814,1.89405 c -0.42801,1.04172 -1.25681,3.07866 -1.84179,4.52652 -0.58498,1.44788 -1.1266,2.65505 -1.20362,2.68264 -0.10048,0.0359 -0.14933,-1.24234 -0.17315,-4.52653 l -0.0333,-4.57668 h -0.62951 -0.62954 l -0.0331,5.51303 c -0.0256,4.27553 -0.0681,5.51269 -0.18886,5.51157 -0.086,-8e-4 -1.79897,-2.49939 -3.80707,-5.55242 l -3.65113,-5.55099 -0.75563,0.0395 -0.75562,0.0395 -0.0332,4.84728 c -0.0232,3.39176 -0.074,4.83267 -0.16886,4.79865 -0.12745,-0.0457 -0.49636,-0.91626 -2.82671,-6.66958 -1.30238,-3.21539 -1.1526,-2.97635 -1.86488,-2.97635 h -0.60301 l -0.854037,2.09699 c -0.469726,1.15332 -1.518587,3.74073 -2.330789,5.74977 -0.812216,2.00904 -1.550463,3.7353 -1.640562,3.83612 -0.13641,0.1526 -0.246905,0.0622 -0.660546,-0.54116 -1.270489,-1.85303 -2.930254,-4.529 -2.930254,-4.72434 0,-0.11919 0.90653,-1.56498 2.014511,-3.21295 1.10798,-1.64798 2.01451,-3.06141 2.01451,-3.14097 0,-0.0906 -0.270028,-0.12942 -0.722073,-0.10402 l -0.722073,0.0406 -1.701635,2.60351 c -1.061975,1.62481 -1.771756,2.59057 -1.888176,2.56912 -0.102589,-0.0189 -0.927491,-1.19051 -1.833096,-2.60351 l -1.646559,-2.56912 -0.77947,-0.0403 c -0.578967,-0.0299 -0.779468,0.005 -0.779468,0.13758 0,0.0978 0.906527,1.53801 2.014509,3.20049 1.107979,1.66248 2.014509,3.06843 2.014509,3.12434 0,0.12608 -0.129153,0.33013 -2.493443,3.94045 -1.052314,1.6069 -1.913297,2.99497 -1.913297,3.08457 0,0.11286 0.22248,0.15053 0.723964,0.1224 l 0.723964,-0.0405 z m 38.36658,0.99414 c -0.036,-0.10073 -0.0505,-2.55722 -0.0324,-5.459 l 0.0332,-5.27594 1.5109,-0.0401 c 1.91968,-0.051 2.92047,0.1355 4.00053,0.74539 1.04078,0.58765 1.86249,1.52974 2.25211,2.58199 0.40896,1.10445 0.40793,3.14667 -0.001,4.25459 -0.41962,1.1338 -1.34124,2.15202 -2.5096,2.77266 l -0.95738,0.50856 -2.11484,0.0475 c -1.69242,0.0381 -2.12786,0.0118 -2.1802,-0.13565 z m 5.00789,-0.96557 c 1.71649,-0.91153 2.53377,-2.31718 2.53377,-4.35781 0,-1.95572 -0.72991,-3.28903 -2.27948,-4.164 -1.03224,-0.58283 -2.09557,-0.802 -3.62478,-0.74709 l -1.13318,0.0408 -0.0333,4.73434 c -0.0182,2.60389 -0.002,4.81767 0.0332,4.91952 0.0528,0.14796 0.41671,0.17486 1.80659,0.13391 1.71577,-0.0507 1.75397,-0.0587 2.69725,-0.55949 z m 6.73466,0.93709 c -0.96659,-0.38756 -1.54607,-1.02122 -1.94308,-2.1249 -0.32101,-0.89239 -0.32717,-5.57672 -0.009,-6.55651 0.28023,-0.86201 0.85164,-1.61039 1.52206,-1.99352 0.74138,-0.42372 2.43759,-0.42865 3.16696,-0.009 1.33683,0.76875 1.82375,2.1715 1.82375,5.254 0,3.08589 -0.4944,4.50727 -1.82375,5.24317 -0.64148,0.35511 -2.07399,0.45299 -2.73734,0.18702 z m 2.5807,-0.78866 c 0.99879,-0.59044 1.47677,-2.09277 1.47677,-4.64154 0,-3.50127 -0.87295,-5.00938 -2.89397,-4.99961 -1.34601,0.006 -2.12887,0.60388 -2.59541,1.9805 -0.25916,0.76469 -0.37634,3.79665 -0.19485,5.04057 0.15663,1.07325 0.56774,2.02694 1.03564,2.40228 0.88423,0.70938 2.18878,0.79896 3.17182,0.2178 z"
       id="path976"
       inkscape:connector-curvature="0" />
  </g>
</svg>
