<?xml version="1.0" encoding="UTF-8" standalone="no"?>
<!-- Created with Inkscape (http://www.inkscape.org/) -->

<svg
   xmlns:dc="http://purl.org/dc/elements/1.1/"
   xmlns:cc="http://creativecommons.org/ns#"
   xmlns:rdf="http://www.w3.org/1999/02/22-rdf-syntax-ns#"
   xmlns:svg="http://www.w3.org/2000/svg"
   xmlns="http://www.w3.org/2000/svg"
   xmlns:xlink="http://www.w3.org/1999/xlink"
   xmlns:sodipodi="http://sodipodi.sourceforge.net/DTD/sodipodi-0.dtd"
   xmlns:inkscape="http://www.inkscape.org/namespaces/inkscape"
   width="60.00005mm"
   height="15.000078mm"
   viewBox="0 0 60.00005 15.000078"
   version="1.1"
   id="svg8"
   inkscape:version="0.92.5 (2060ec1f9f, 2020-04-08)"
   sodipodi:docname="logo.svg">
  <defs
     id="defs2">
    <linearGradient
       inkscape:collect="always"
       id="linearGradient2473">
      <stop
         style="stop-color:#ff0000;stop-opacity:1"
         offset="0"
         id="stop2469" />
      <stop
         id="stop2561"
         offset="0.17550145"
         style="stop-color:#ff7f00;stop-opacity:1" />
      <stop
         style="stop-color:#ffff00;stop-opacity:0.98039216"
         offset="0.35559192"
         id="stop2565" />
      <stop
         style="stop-color:#00ff00;stop-opacity:1"
         offset="0.51928467"
         id="stop2563" />
      <stop
         id="stop2567"
         offset="0.66367465"
         style="stop-color:#00cbde;stop-opacity:1" />
      <stop
         style="stop-color:#0000ff;stop-opacity:1"
         offset="0.81978905"
         id="stop2569" />
      <stop
         style="stop-color:#a020f0;stop-opacity:1"
         offset="1"
         id="stop2471" />
    </linearGradient>
    <linearGradient
       inkscape:collect="always"
       xlink:href="#linearGradient2473"
       id="linearGradient2475"
       x1="135.59125"
       y1="203.27107"
       x2="92.067696"
       y2="217.58789"
       gradientUnits="userSpaceOnUse"
       gradientTransform="matrix(3.7795276,0,0,3.7795276,-321.95889,-766.43274)" />
  </defs>
  <sodipodi:namedview
     id="base"
     pagecolor="#ffffff"
     bordercolor="#666666"
     borderopacity="1.0"
     inkscape:pageopacity="0.0"
     inkscape:pageshadow="2"
     inkscape:zoom="2.984698"
     inkscape:cx="127.86112"
     inkscape:cy="-0.56060621"
     inkscape:document-units="mm"
     inkscape:current-layer="layer1"
     showgrid="false"
     fit-margin-top="0"
     fit-margin-left="0"
     fit-margin-right="0"
     fit-margin-bottom="0"
     inkscape:window-width="1404"
     inkscape:window-height="980"
     inkscape:window-x="516"
     inkscape:window-y="61"
     inkscape:window-maximized="0"
     objecttolerance="1" />
  <metadata
     id="metadata5">
    <rdf:RDF>
      <cc:Work
         rdf:about="">
        <dc:format>image/svg+xml</dc:format>
        <dc:type
           rdf:resource="http://purl.org/dc/dcmitype/StillImage" />
        <dc:title />
      </cc:Work>
    </rdf:RDF>
  </metadata>
  <g
     inkscape:label="Layer 1"
     inkscape:groupmode="layer"
     id="layer1"
     transform="translate(-84.910801,-185.78339)">
    <path
       style="opacity:0.70899999;fill:url(#linearGradient2475);fill-opacity:1;fill-rule:nonzero;stroke:none;stroke-width:3.77952766;stroke-linecap:round;stroke-linejoin:miter;stroke-miterlimit:4;stroke-dasharray:none;stroke-dashoffset:0;stroke-opacity:1"
       d="M 207.13672 0.083984375 C 205.47428 0.069238903 203.80984 0.18973556 202.32422 0.45898438 C 198.08631 1.2270978 194.07798 3.90031 191.5 7.6738281 L 189.76172 10.216797 L 187.9668 8.4726562 C 185.49283 6.0709933 182.37155 4.1838295 178.30859 2.6308594 C 175.08182 1.3972594 174.19125 1.302002 163.89453 1.09375 C 154.06568 0.89487126 152.83316 0.96308681 152.11523 1.734375 C 151.40589 2.4968947 151.31445 4.0884657 151.31445 15.597656 C 151.31445 22.748938 151.13769 28.599609 150.92188 28.599609 C 150.7064 28.599609 148.22152 22.790505 145.39844 15.689453 C 142.57539 8.5883634 139.83653 2.3750204 139.3125 1.8828125 C 138.11144 0.75473691 133.87092 0.66774341 132.44336 1.7421875 C 131.88013 2.1660237 130.14272 5.6872935 128.47266 9.7949219 C 122.13862 25.373757 121.18685 27.614276 120.79102 27.876953 C 120.56647 28.026244 120.38281 22.498543 120.38281 15.591797 C 120.38281 0.74346932 120.46221 0.98828125 115.6582 0.98828125 C 111.08664 0.98828125 111.3418 -0.17821344 111.3418 20.753906 C 111.3418 32.019468 111.16949 38.847636 110.88867 38.742188 C 110.63964 38.648455 105.06727 30.401591 98.505859 20.417969 C 91.944373 10.434271 86.218466 1.9784492 85.78125 1.6269531 C 84.580192 0.66094368 78.287461 0.78328019 77.349609 1.7910156 C 76.706523 2.4816865 76.601562 4.5294926 76.601562 16.365234 C 76.601562 23.938349 76.433744 30.134766 76.228516 30.134766 C 76.023023 30.134766 74.640886 27.085687 73.15625 23.359375 C 66.682978 7.1118285 64.594772 2.2266508 63.869141 1.6269531 C 62.636939 0.60871061 57.73542 0.80679988 56.703125 1.9160156 C 55.847482 2.8353857 54.388758 6.2836485 44.486328 30.773438 C 41.671876 37.733815 39.212867 43.427734 39.023438 43.427734 C 38.834038 43.427734 38.353539 43.025449 37.955078 42.533203 C 36.490216 40.723905 28.539062 28.085789 28.539062 27.566406 C 28.539062 27.271452 31.964703 21.932984 36.152344 15.705078 C 40.339985 9.4770592 43.767578 3.9799222 43.767578 3.4882812 C 43.767578 2.9968293 43.430895 2.2331826 43.019531 1.7910156 C 42.006584 0.70338098 36.299508 0.67981565 34.867188 1.7578125 C 34.305474 2.1805527 31.353148 6.3215674 28.306641 10.960938 C 25.260137 15.600345 22.611103 19.396484 22.417969 19.396484 C 22.224858 19.396484 19.639725 15.592039 16.673828 10.941406 C 13.707931 6.2907732 10.833852 2.1496828 10.287109 1.7382812 C 8.8694388 0.67041353 2.6949935 0.70848334 1.6875 1.7910156 C 0.10166693 3.4950156 -0.08504846 3.1258238 9.8652344 18.017578 L 16.289062 27.634766 L 14.857422 29.779297 C 6.5791189 42.178226 -0.48828125 53.414244 -0.48828125 54.175781 C -0.48828125 54.692139 -0.15106285 55.475645 0.25976562 55.917969 C 1.3948333 57.138151 7.1095875 57.029422 8.6074219 55.759766 C 9.2316071 55.230783 12.419817 50.523458 15.691406 45.298828 C 18.963007 40.074236 21.853502 35.794795 22.115234 35.791016 C 22.376967 35.785951 25.363879 40.278408 28.751953 45.775391 C 32.14002 51.272336 35.285047 55.983795 35.740234 56.246094 C 36.964881 56.950635 42.972502 56.831462 43.916016 56.083984 C 44.359679 55.732451 48.060274 46.81566 52.138672 36.269531 C 56.217066 25.723364 59.746138 16.879865 59.980469 16.617188 C 60.214837 16.356778 60.518612 16.260738 60.654297 16.40625 C 60.789906 16.552064 64.237174 25.280567 68.314453 35.802734 C 72.439089 46.447093 76.155155 55.330475 76.693359 55.828125 C 77.989284 57.027936 83.329301 57.091802 84.419922 55.919922 C 85.072079 55.219273 85.167969 52.763555 85.167969 36.744141 C 85.167969 26.639989 85.335787 18.373047 85.541016 18.373047 C 85.929475 18.373047 86.465202 19.170898 101.09375 41.535156 C 106.0235 49.071799 110.5008 55.572166 111.04297 55.980469 C 112.29127 56.919984 118.45198 56.995266 119.5293 56.083984 C 119.94504 55.732413 121.8249 51.417606 123.70703 46.496094 C 133.01956 22.145467 135.36196 16.325445 135.79102 16.478516 C 136.04742 16.570358 137.62321 20.196839 139.29297 24.539062 C 145.68642 41.164411 147.49367 45.874469 149.18164 50.330078 C 150.14051 52.861152 151.35575 55.335879 151.88477 55.828125 C 152.73433 56.61884 153.99025 56.71667 162.66797 56.712891 C 173.68798 56.702913 177.1103 56.16513 181.95312 53.681641 C 183.62685 52.82331 186.06858 51.08619 187.37891 49.820312 C 188.68919 48.554435 189.94498 47.525517 190.16797 47.529297 C 190.39123 47.535344 191.16426 48.439535 191.88672 49.537109 C 194.00983 52.762672 198.27026 55.493851 202.32422 56.228516 C 206.28588 56.946626 211.52115 56.614069 214.59375 55.449219 C 219.42425 53.617886 224.03084 48.166817 225.61719 42.40625 C 226.50417 39.185866 226.50417 17.503587 225.61719 14.283203 C 224.03084 8.5226362 219.42425 3.0695379 214.59375 1.2382812 C 212.67337 0.51046235 209.90745 0.10856016 207.13672 0.083984375 z M 209.17773 2.2421875 C 209.38084 2.2633844 209.57708 2.3002698 209.77734 2.328125 C 209.57716 2.3002247 209.38076 2.2634332 209.17773 2.2421875 z M 204.22461 2.3828125 C 203.9949 2.4164222 203.77107 2.4333939 203.53906 2.4746094 C 203.54047 2.4743599 203.54156 2.4729055 203.54297 2.4726562 C 203.77343 2.431759 203.99639 2.4161177 204.22461 2.3828125 z M 210.86523 2.5078125 C 211.07727 2.5512051 211.2838 2.605185 211.49219 2.65625 C 211.28378 2.6051031 211.0773 2.5512832 210.86523 2.5078125 z M 212.47266 2.9238281 C 212.69705 2.9937754 212.91716 3.0712724 213.13672 3.1503906 C 212.91748 3.0713096 212.69671 2.9937631 212.47266 2.9238281 z M 84.449219 2.9921875 L 84.455078 2.9921875 L 98.253906 23.972656 C 105.83912 35.504888 112.30856 44.942926 112.64062 44.957031 C 112.63984 44.957052 112.63946 44.958992 112.63867 44.958984 C 112.31363 44.955999 105.83971 35.511667 98.25 23.972656 L 84.449219 2.9921875 z M 39.804688 3.1113281 C 40.812506 3.1281447 41.386719 3.2744311 41.386719 3.53125 C 41.386719 3.8319492 37.961078 9.1737579 33.773438 15.402344 C 29.585793 21.630892 26.158203 27.096393 26.158203 27.546875 C 26.158203 28.285168 32.432527 38.398766 37.234375 45.402344 C 38.40345 47.107623 38.930142 47.727741 39.337891 47.691406 C 38.929227 47.731844 38.401041 47.112627 37.228516 45.402344 C 32.426667 38.398766 26.154297 28.285168 26.154297 27.546875 C 26.154297 27.096393 29.579933 21.630892 33.767578 15.402344 C 37.955219 9.1737579 41.382812 3.8319492 41.382812 3.53125 C 41.382812 3.2750119 40.808656 3.128533 39.804688 3.1113281 z M 9.2050781 3.2910156 L 9.2089844 3.2910156 L 15.431641 13.001953 C 18.851045 18.337192 21.966674 22.759953 22.359375 22.839844 C 22.35829 22.839692 22.356527 22.841992 22.355469 22.841797 C 21.967731 22.770364 18.850493 18.342426 15.427734 13.001953 L 9.2050781 3.2910156 z M 118.23633 3.2910156 L 118.24023 3.2910156 L 118.36719 20.587891 C 118.4569 32.957015 118.64051 37.79575 119.01758 37.695312 C 119.01725 37.695441 119.01595 37.697148 119.01562 37.697266 C 118.63586 37.832951 118.45136 33.000577 118.36133 20.587891 L 118.23633 3.2910156 z M 138.08008 3.2910156 L 138.08398 3.2910156 L 141.87109 12.75 C 150.37121 33.985639 152.38639 38.802614 152.78711 38.826172 C 152.78696 38.826178 152.78725 38.828125 152.78711 38.828125 C 152.39332 38.828125 150.38629 34.037962 141.86523 12.75 L 138.08008 3.2910156 z M 153.45508 3.2910156 L 163.6875 3.3242188 C 166.12897 3.3326763 167.99711 3.344667 169.48047 3.375 C 167.99628 3.3444927 166.12557 3.334638 163.68164 3.3261719 L 153.45508 3.2910156 z M 61.787109 3.3398438 C 62.99784 3.6516698 63.597816 5.4133901 67.294922 14.541016 C 76.09352 36.263569 77.49348 39.567149 77.976562 39.746094 C 77.975773 39.745864 77.9754 39.748331 77.974609 39.748047 C 77.492909 39.575322 76.098638 36.285847 67.291016 14.541016 C 63.59923 5.4265243 62.994481 3.655625 61.787109 3.3398438 z M 213.97266 3.4785156 C 214.20531 3.5775974 214.43562 3.6793583 214.66211 3.7890625 C 214.43566 3.6792763 214.20527 3.5776798 213.97266 3.4785156 z M 174.17383 3.7109375 C 175.28775 3.9102012 176.1556 4.2163968 177.4082 4.6953125 C 181.88811 6.4081566 185.65024 8.8581669 188.00977 11.599609 C 189.03848 12.794772 190.08655 13.771484 190.33789 13.771484 C 190.33632 13.771568 190.33357 13.773438 190.33203 13.773438 C 190.08069 13.773438 189.03262 12.794772 188.00391 11.599609 C 185.64438 8.8581669 181.88421 6.4101097 177.4043 4.6972656 C 176.15367 4.2191034 175.28543 3.910421 174.17383 3.7109375 z M 215.4375 4.1972656 C 215.64475 4.3125823 215.85331 4.4242789 216.05469 4.5488281 C 215.85361 4.424381 215.64444 4.3125044 215.4375 4.1972656 z M 216.83398 5.0761719 C 217.01897 5.2068627 217.20745 5.3318167 217.38672 5.4707031 C 217.20767 5.331921 217.01874 5.2067761 216.83398 5.0761719 z M 218.17188 6.1367188 C 218.46105 6.3930815 218.74014 6.66231 219.01172 6.9414062 C 218.74002 6.6619934 218.4612 6.3933658 218.17188 6.1367188 z M 219.66602 7.6347656 C 219.84302 7.8396767 220.00573 8.0600835 220.17383 8.2753906 C 220.00597 8.0602445 219.84276 7.8395393 219.66602 7.6347656 z M 202.16992 7.9960938 C 202.17107 7.9957085 202.17268 7.9964787 202.17383 7.9960938 C 201.79937 8.1217965 201.46177 8.2675713 201.1543 8.4277344 C 201.46113 8.2680996 201.79649 8.1214925 202.16992 7.9960938 z M 166.48438 8.2207031 L 166.48438 8.2226562 C 165.68023 8.2174096 164.82869 8.2259605 163.92383 8.25 C 164.82921 8.2273919 165.67984 8.2169294 166.48438 8.2207031 z M 166.53516 8.2246094 C 167.27623 8.2302165 167.97324 8.2483151 168.64062 8.28125 C 167.97302 8.2484675 167.2765 8.2300829 166.53516 8.2246094 z M 169.29492 8.3261719 C 169.72906 8.3549157 170.16145 8.38742 170.56836 8.4296875 C 170.1604 8.3874005 169.73026 8.3548736 169.29492 8.3261719 z M 158.20898 8.4023438 L 158.21484 8.4023438 L 158.08789 28.34375 C 158.01948 39.311107 158.07487 48.593898 158.21094 48.974609 L 158.2168 48.974609 C 158.29098 49.183594 158.56902 49.328408 159.22461 49.419922 C 160.29721 49.569646 162.41751 49.57514 166.27539 49.490234 C 162.41884 49.57516 160.29931 49.569375 159.22461 49.419922 C 158.56553 49.328267 158.2853 49.184051 158.21094 48.974609 L 158.20703 48.974609 C 158.07097 48.593898 158.01557 39.309154 158.08398 28.341797 L 158.20898 8.4023438 z M 171.32617 8.5234375 C 171.66631 8.5679914 172.00437 8.6163273 172.32812 8.671875 C 172.00364 8.6162807 171.66712 8.5679913 171.32617 8.5234375 z M 173.09766 8.8203125 C 173.39014 8.8809814 173.67922 8.9465897 173.96094 9.0175781 C 173.67872 8.9465484 173.39068 8.8809872 173.09766 8.8203125 z M 220.67383 8.9335938 C 220.83441 9.1615769 220.98373 9.4004215 221.13477 9.6386719 C 220.98404 9.4007939 220.83407 9.1612414 220.67383 8.9335938 z M 174.66992 9.2070312 C 174.95717 9.2908948 175.2402 9.3845439 175.51953 9.4804688 C 175.23976 9.3844995 174.95765 9.2909003 174.66992 9.2070312 z M 206.99023 9.4472656 C 214.62874 9.4103396 217.92773 15.110604 217.92773 28.34375 C 217.92773 37.976896 216.12066 43.655134 212.3457 45.886719 C 208.63028 48.083229 203.69939 47.745574 200.35742 45.064453 C 198.58898 43.645845 197.03535 40.040753 196.44336 35.984375 C 195.75741 31.282945 196.20019 19.823761 197.17969 16.933594 C 198.94299 11.730621 201.90295 9.4699428 206.99023 9.4472656 z M 176.20312 9.7226562 C 176.44786 9.8172629 176.69013 9.9245313 176.93164 10.029297 C 176.68986 9.9245236 176.44814 9.8172455 176.20312 9.7226562 z M 199.14453 9.8535156 C 197.41988 11.412491 196.00873 13.614579 195.21484 16.056641 C 194.01231 19.759784 194.03478 37.463125 195.24805 40.835938 C 196.74856 45.007326 198.93854 47.402394 202.5918 48.867188 L 202.5918 48.869141 C 203.53111 49.245757 204.87696 49.429652 206.32227 49.441406 C 204.87546 49.429993 203.52612 49.248059 202.58594 48.871094 L 202.58789 48.869141 C 198.93464 47.404347 196.74465 45.00928 195.24414 40.837891 C 194.03087 37.465078 194.00731 19.761737 195.21094 16.058594 C 196.00529 13.615101 197.41816 11.412812 199.14453 9.8535156 z M 166.48828 10.265625 C 171.1828 10.315263 174.6859 11.189718 178.09961 13.117188 C 183.95625 16.424161 186.71484 21.463771 186.71484 28.855469 C 186.71484 36.568086 183.62619 41.881019 177.13867 45.326172 C 173.57352 47.218921 173.43011 47.249784 166.94531 47.441406 C 161.69222 47.596178 160.31675 47.494766 160.11719 46.935547 C 159.98415 46.550602 159.92145 38.183271 159.99023 28.341797 L 160.11719 10.447266 L 164.40039 10.294922 C 165.12285 10.26898 165.81764 10.258534 166.48828 10.265625 z M 177.66016 10.349609 C 177.85919 10.445271 178.05895 10.557117 178.25781 10.660156 C 178.05873 10.557092 177.85942 10.445276 177.66016 10.349609 z M 221.57227 10.357422 C 221.71998 10.616833 221.85932 10.884059 221.99609 11.154297 C 221.85933 10.883952 221.71997 10.616936 221.57227 10.357422 z M 135.70508 10.820312 C 135.70558 10.820199 135.70652 10.820414 135.70703 10.820312 C 135.14642 10.953986 132.03979 18.690208 122.19727 44.451172 C 120.31688 49.372684 118.57115 53.696956 118.31641 54.060547 C 118.16033 54.283445 117.80907 54.436705 117.25586 54.521484 C 117.80626 54.436495 118.15489 54.282749 118.31055 54.060547 C 118.56529 53.696956 120.31297 49.372684 122.19336 44.451172 C 132.04103 18.676721 135.14684 10.946095 135.70508 10.820312 z M 60.345703 10.824219 C 60.345916 10.824263 60.34744 10.826121 60.347656 10.826172 C 59.908624 10.754058 57.006823 17.691743 51.427734 32.148438 C 46.87329 43.950012 42.922756 53.845822 42.648438 54.140625 C 42.510801 54.288279 42.080323 54.422186 41.5 54.519531 C 42.077755 54.422062 42.505353 54.287856 42.642578 54.140625 C 42.916896 53.845822 46.869384 43.948059 51.423828 32.146484 C 57.010234 17.670818 59.912569 10.733586 60.345703 10.824219 z M 83.707031 11.724609 C 83.707842 11.724609 83.712025 11.728431 83.712891 11.728516 C 83.455796 11.738635 83.223294 20.549976 83.150391 33.074219 L 83.025391 54.421875 L 83.021484 54.421875 L 83.146484 33.074219 C 83.219429 20.542779 83.449608 11.724609 83.707031 11.724609 z M 222.33398 11.857422 C 222.46928 12.154391 222.60029 12.454891 222.72266 12.763672 C 222.60039 12.454956 222.46916 12.154336 222.33398 11.857422 z M 222.99219 13.498047 C 223.1035 13.813623 223.21449 14.128276 223.3125 14.455078 C 223.21467 14.128729 223.10328 13.813204 222.99219 13.498047 z M 223.53906 15.306641 C 223.61991 15.620906 223.70666 15.930203 223.77539 16.253906 C 223.70668 15.930077 223.61989 15.621028 223.53906 15.306641 z M 223.93555 17.164062 C 223.9906 17.482509 224.06004 17.790402 224.10352 18.117188 C 224.71614 22.721899 224.71614 33.965563 224.10352 38.570312 C 222.98597 46.96969 218.0085 52.641805 211.06445 54.148438 C 218.00532 52.640105 222.98041 46.96744 224.09766 38.570312 C 224.71028 33.965563 224.71028 22.721899 224.09766 18.117188 C 224.05435 17.791693 223.99034 17.481285 223.93555 17.164062 z M 22.070312 31.878906 C 22.072457 31.878152 22.074052 31.879601 22.076172 31.878906 C 21.506588 32.079401 20.093199 34.360952 13.203125 45.21875 L 7.3613281 54.425781 L 4.625 54.578125 L 7.3574219 54.423828 L 13.199219 45.216797 C 20.089293 34.358998 21.50104 32.079061 22.070312 31.878906 z M 190.83594 43.427734 C 190.83665 43.427734 190.83912 43.429654 190.83984 43.429688 C 190.67339 43.429688 189.14357 44.891076 187.43945 46.677734 C 185.14081 49.087637 182.95155 50.827322 180.38672 52.050781 C 182.94905 50.827637 185.1366 49.085906 187.43359 46.677734 C 189.13771 44.891076 190.66949 43.427734 190.83594 43.427734 z M 209.25977 49.240234 C 208.93156 49.287937 208.59377 49.316643 208.25781 49.347656 C 208.59364 49.316765 208.93164 49.287803 209.25977 49.240234 z M 174.44922 49.308594 L 174.44531 49.310547 L 166.97852 49.476562 L 174.44922 49.308594 z M 180.38086 52.052734 C 179.52757 52.459432 178.63426 52.80957 177.67969 53.107422 C 178.63402 52.809401 179.52774 52.459641 180.38086 52.052734 z M 177.42188 53.179688 C 176.53725 53.444485 175.60665 53.670349 174.60547 53.853516 C 175.6067 53.670202 176.53723 53.444699 177.42188 53.179688 z M 203.53906 54.214844 C 203.97656 54.292479 204.40276 54.334378 204.83203 54.384766 C 204.40444 54.334474 203.97871 54.294122 203.54297 54.216797 C 203.54157 54.216549 203.54046 54.215092 203.53906 54.214844 z "
       transform="matrix(0.26458333,0,0,0.26458333,84.910801,185.78339)"
       id="path2447" />
    <path
       style="opacity:0.70899999;fill:#f3c716;fill-opacity:1;fill-rule:nonzero;stroke:none;stroke-width:3.77952766;stroke-linecap:round;stroke-linejoin:miter;stroke-miterlimit:4;stroke-dasharray:none;stroke-dashoffset:0;stroke-opacity:1"
       d="m 0.25976562,55.917969 -0.001953,0.002 v 0.515625 H 1.3066406 C 0.85392623,56.300812 0.46499543,56.138588 0.25976562,55.917969 Z"
       transform="matrix(0.26458333,0,0,0.26458333,84.910801,185.78339)"
       id="rect2408" />
  </g>
</svg>
